<svg width="900" height="760" xmlns="http://www.w3.org/2000/svg">
<defs><style>.grid { stroke: #ddd; stroke-width: 1; fill: none; }.tile { fill: #f9f9f9; stroke: #ddd; stroke-width: 1; }.rock { fill: #888; stroke: #555; stroke-width: 2; }.unit-start { fill: #4488ff; stroke: #003366; stroke-width: 2; }.unit-end { fill: #44ff44; stroke: #006600; stroke-width: 2; }.unit-label { fill: white; font-family: Arial; font-size: 14px; font-weight: bold; text-anchor: middle; dominant-baseline: middle; }.path { stroke: #ff8800; stroke-width: 3; stroke-dasharray: 8,4; fill: none; marker-end: url(#arrowhead); }.legend-text { font-family: Arial; font-size: 12px; fill: #333; }.title-text { font-family: Arial; font-size: 16px; font-weight: bold; fill: #333; }</style><marker id="arrowhead" markerWidth="10" markerHeight="10" refX="9" refY="3" orient="auto"><polygon points="0 0, 10 3, 0 6" fill="#ff8800"/></marker></defs>
<rect width="900" height="760" fill="#ffffff"/>
<text x="450" y="25" class="title-text">Formation Around Rock Cluster</text>
<rect x="50" y="70" width="40" height="40" class="tile"/>
<rect x="90" y="70" width="40" height="40" class="tile"/>
<rect x="130" y="70" width="40" height="40" class="tile"/>
<rect x="170" y="70" width="40" height="40" class="tile"/>
<rect x="210" y="70" width="40" height="40" class="tile"/>
<rect x="250" y="70" width="40" height="40" class="tile"/>
<rect x="290" y="70" width="40" height="40" class="tile"/>
<rect x="330" y="70" width="40" height="40" class="tile"/>
<rect x="370" y="70" width="40" height="40" class="tile"/>
<rect x="410" y="70" width="40" height="40" class="tile"/>
<rect x="450" y="70" width="40" height="40" class="tile"/>
<rect x="490" y="70" width="40" height="40" class="tile"/>
<rect x="530" y="70" width="40" height="40" class="tile"/>
<rect x="570" y="70" width="40" height="40" class="tile"/>
<rect x="610" y="70" width="40" height="40" class="tile"/>
<rect x="650" y="70" width="40" height="40" class="tile"/>
<rect x="690" y="70" width="40" height="40" class="tile"/>
<rect x="730" y="70" width="40" height="40" class="tile"/>
<rect x="770" y="70" width="40" height="40" class="tile"/>
<rect x="810" y="70" width="40" height="40" class="tile"/>
<rect x="50" y="110" width="40" height="40" class="tile"/>
<rect x="90" y="110" width="40" height="40" class="tile"/>
<rect x="130" y="110" width="40" height="40" class="tile"/>
<rect x="170" y="110" width="40" height="40" class="tile"/>
<rect x="210" y="110" width="40" height="40" class="tile"/>
<rect x="250" y="110" width="40" height="40" class="tile"/>
<rect x="290" y="110" width="40" height="40" class="tile"/>
<rect x="330" y="110" width="40" height="40" class="tile"/>
<rect x="370" y="110" width="40" height="40" class="tile"/>
<rect x="410" y="110" width="40" height="40" class="tile"/>
<rect x="450" y="110" width="40" height="40" class="tile"/>
<rect x="490" y="110" width="40" height="40" class="tile"/>
<rect x="530" y="110" width="40" height="40" class="tile"/>
<rect x="570" y="110" width="40" height="40" class="tile"/>
<rect x="610" y="110" width="40" height="40" class="tile"/>
<rect x="650" y="110" width="40" height="40" class="tile"/>
<rect x="690" y="110" width="40" height="40" class="tile"/>
<rect x="730" y="110" width="40" height="40" class="tile"/>
<rect x="770" y="110" width="40" height="40" class="tile"/>
<rect x="810" y="110" width="40" height="40" class="tile"/>
<rect x="50" y="150" width="40" height="40" class="tile"/>
<rect x="90" y="150" width="40" height="40" class="tile"/>
<rect x="130" y="150" width="40" height="40" class="tile"/>
<rect x="170" y="150" width="40" height="40" class="tile"/>
<rect x="210" y="150" width="40" height="40" class="tile"/>
<rect x="250" y="150" width="40" height="40" class="tile"/>
<rect x="290" y="150" width="40" height="40" class="tile"/>
<rect x="330" y="150" width="40" height="40" class="tile"/>
<rect x="370" y="150" width="40" height="40" class="tile"/>
<rect x="410" y="150" width="40" height="40" class="tile"/>
<rect x="450" y="150" width="40" height="40" class="tile"/>
<rect x="490" y="150" width="40" height="40" class="tile"/>
<rect x="530" y="150" width="40" height="40" class="tile"/>
<rect x="570" y="150" width="40" height="40" class="tile"/>
<rect x="610" y="150" width="40" height="40" class="tile"/>
<rect x="650" y="150" width="40" height="40" class="tile"/>
<rect x="690" y="150" width="40" height="40" class="tile"/>
<rect x="730" y="150" width="40" height="40" class="tile"/>
<rect x="770" y="150" width="40" height="40" class="tile"/>
<rect x="810" y="150" width="40" height="40" class="tile"/>
<rect x="50" y="190" width="40" height="40" class="tile"/>
<rect x="90" y="190" width="40" height="40" class="tile"/>
<rect x="130" y="190" width="40" height="40" class="tile"/>
<rect x="170" y="190" width="40" height="40" class="tile"/>
<rect x="210" y="190" width="40" height="40" class="tile"/>
<rect x="250" y="190" width="40" height="40" class="tile"/>
<rect x="290" y="190" width="40" height="40" class="tile"/>
<rect x="330" y="190" width="40" height="40" class="tile"/>
<rect x="370" y="190" width="40" height="40" class="tile"/>
<rect x="410" y="190" width="40" height="40" class="tile"/>
<rect x="450" y="190" width="40" height="40" class="tile"/>
<rect x="490" y="190" width="40" height="40" class="tile"/>
<rect x="530" y="190" width="40" height="40" class="tile"/>
<rect x="570" y="190" width="40" height="40" class="tile"/>
<rect x="610" y="190" width="40" height="40" class="tile"/>
<rect x="650" y="190" width="40" height="40" class="tile"/>
<rect x="690" y="190" width="40" height="40" class="tile"/>
<rect x="730" y="190" width="40" height="40" class="tile"/>
<rect x="770" y="190" width="40" height="40" class="tile"/>
<rect x="810" y="190" width="40" height="40" class="tile"/>
<rect x="50" y="230" width="40" height="40" class="tile"/>
<rect x="90" y="230" width="40" height="40" class="tile"/>
<rect x="130" y="230" width="40" height="40" class="tile"/>
<rect x="170" y="230" width="40" height="40" class="tile"/>
<rect x="210" y="230" width="40" height="40" class="tile"/>
<rect x="250" y="230" width="40" height="40" class="tile"/>
<rect x="290" y="230" width="40" height="40" class="tile"/>
<rect x="330" y="230" width="40" height="40" class="tile"/>
<rect x="370" y="230" width="40" height="40" class="tile"/>
<rect x="410" y="230" width="40" height="40" class="tile"/>
<rect x="450" y="230" width="40" height="40" class="tile"/>
<rect x="490" y="230" width="40" height="40" class="tile"/>
<rect x="530" y="230" width="40" height="40" class="tile"/>
<rect x="570" y="230" width="40" height="40" class="tile"/>
<rect x="610" y="230" width="40" height="40" class="tile"/>
<rect x="650" y="230" width="40" height="40" class="tile"/>
<rect x="690" y="230" width="40" height="40" class="tile"/>
<rect x="730" y="230" width="40" height="40" class="tile"/>
<rect x="770" y="230" width="40" height="40" class="tile"/>
<rect x="810" y="230" width="40" height="40" class="tile"/>
<rect x="50" y="270" width="40" height="40" class="tile"/>
<rect x="90" y="270" width="40" height="40" class="tile"/>
<rect x="130" y="270" width="40" height="40" class="tile"/>
<rect x="170" y="270" width="40" height="40" class="tile"/>
<rect x="210" y="270" width="40" height="40" class="tile"/>
<rect x="250" y="270" width="40" height="40" class="tile"/>
<rect x="290" y="270" width="40" height="40" class="tile"/>
<rect x="330" y="270" width="40" height="40" class="tile"/>
<rect x="370" y="270" width="40" height="40" class="tile"/>
<rect x="410" y="270" width="40" height="40" class="tile"/>
<rect x="450" y="270" width="40" height="40" class="tile"/>
<rect x="490" y="270" width="40" height="40" class="tile"/>
<rect x="530" y="270" width="40" height="40" class="tile"/>
<rect x="570" y="270" width="40" height="40" class="tile"/>
<rect x="610" y="270" width="40" height="40" class="tile"/>
<rect x="650" y="270" width="40" height="40" class="tile"/>
<rect x="690" y="270" width="40" height="40" class="tile"/>
<rect x="730" y="270" width="40" height="40" class="tile"/>
<rect x="770" y="270" width="40" height="40" class="tile"/>
<rect x="810" y="270" width="40" height="40" class="tile"/>
<rect x="50" y="310" width="40" height="40" class="tile"/>
<rect x="90" y="310" width="40" height="40" class="tile"/>
<rect x="130" y="310" width="40" height="40" class="tile"/>
<rect x="170" y="310" width="40" height="40" class="tile"/>
<rect x="210" y="310" width="40" height="40" class="tile"/>
<rect x="250" y="310" width="40" height="40" class="tile"/>
<rect x="290" y="310" width="40" height="40" class="tile"/>
<rect x="330" y="310" width="40" height="40" class="tile"/>
<rect x="370" y="310" width="40" height="40" class="tile"/>
<rect x="410" y="310" width="40" height="40" class="tile"/>
<rect x="450" y="310" width="40" height="40" class="tile"/>
<rect x="490" y="310" width="40" height="40" class="tile"/>
<rect x="530" y="310" width="40" height="40" class="tile"/>
<rect x="570" y="310" width="40" height="40" class="tile"/>
<rect x="610" y="310" width="40" height="40" class="tile"/>
<rect x="650" y="310" width="40" height="40" class="tile"/>
<rect x="690" y="310" width="40" height="40" class="tile"/>
<rect x="730" y="310" width="40" height="40" class="tile"/>
<rect x="770" y="310" width="40" height="40" class="tile"/>
<rect x="810" y="310" width="40" height="40" class="tile"/>
<rect x="50" y="350" width="40" height="40" class="tile"/>
<rect x="90" y="350" width="40" height="40" class="tile"/>
<rect x="130" y="350" width="40" height="40" class="tile"/>
<rect x="170" y="350" width="40" height="40" class="tile"/>
<rect x="210" y="350" width="40" height="40" class="tile"/>
<rect x="250" y="350" width="40" height="40" class="tile"/>
<rect x="290" y="350" width="40" height="40" class="tile"/>
<rect x="330" y="350" width="40" height="40" class="tile"/>
<rect x="370" y="350" width="40" height="40" class="tile"/>
<rect x="410" y="350" width="40" height="40" class="tile"/>
<rect x="450" y="350" width="40" height="40" class="tile"/>
<rect x="490" y="350" width="40" height="40" class="tile"/>
<rect x="530" y="350" width="40" height="40" class="tile"/>
<rect x="570" y="350" width="40" height="40" class="tile"/>
<rect x="610" y="350" width="40" height="40" class="tile"/>
<rect x="650" y="350" width="40" height="40" class="tile"/>
<rect x="690" y="350" width="40" height="40" class="tile"/>
<rect x="730" y="350" width="40" height="40" class="tile"/>
<rect x="770" y="350" width="40" height="40" class="tile"/>
<rect x="810" y="350" width="40" height="40" class="tile"/>
<rect x="50" y="390" width="40" height="40" class="tile"/>
<rect x="90" y="390" width="40" height="40" class="tile"/>
<rect x="130" y="390" width="40" height="40" class="tile"/>
<rect x="170" y="390" width="40" height="40" class="tile"/>
<rect x="210" y="390" width="40" height="40" class="tile"/>
<rect x="250" y="390" width="40" height="40" class="tile"/>
<rect x="290" y="390" width="40" height="40" class="tile"/>
<rect x="330" y="390" width="40" height="40" class="tile"/>
<rect x="370" y="390" width="40" height="40" class="tile"/>
<rect x="410" y="390" width="40" height="40" class="tile"/>
<rect x="450" y="390" width="40" height="40" class="tile"/>
<rect x="490" y="390" width="40" height="40" class="tile"/>
<rect x="530" y="390" width="40" height="40" class="tile"/>
<rect x="570" y="390" width="40" height="40" class="tile"/>
<rect x="610" y="390" width="40" height="40" class="tile"/>
<rect x="650" y="390" width="40" height="40" class="tile"/>
<rect x="690" y="390" width="40" height="40" class="tile"/>
<rect x="730" y="390" width="40" height="40" class="tile"/>
<rect x="770" y="390" width="40" height="40" class="tile"/>
<rect x="810" y="390" width="40" height="40" class="tile"/>
<rect x="50" y="430" width="40" height="40" class="tile"/>
<rect x="90" y="430" width="40" height="40" class="tile"/>
<rect x="130" y="430" width="40" height="40" class="tile"/>
<rect x="170" y="430" width="40" height="40" class="tile"/>
<rect x="210" y="430" width="40" height="40" class="tile"/>
<rect x="250" y="430" width="40" height="40" class="tile"/>
<rect x="290" y="430" width="40" height="40" class="tile"/>
<rect x="330" y="430" width="40" height="40" class="tile"/>
<rect x="370" y="430" width="40" height="40" class="tile"/>
<rect x="410" y="430" width="40" height="40" class="tile"/>
<rect x="450" y="430" width="40" height="40" class="tile"/>
<rect x="490" y="430" width="40" height="40" class="tile"/>
<rect x="530" y="430" width="40" height="40" class="tile"/>
<rect x="570" y="430" width="40" height="40" class="tile"/>
<rect x="610" y="430" width="40" height="40" class="tile"/>
<rect x="650" y="430" width="40" height="40" class="tile"/>
<rect x="690" y="430" width="40" height="40" class="tile"/>
<rect x="730" y="430" width="40" height="40" class="tile"/>
<rect x="770" y="430" width="40" height="40" class="tile"/>
<rect x="810" y="430" width="40" height="40" class="tile"/>
<rect x="50" y="470" width="40" height="40" class="tile"/>
<rect x="90" y="470" width="40" height="40" class="tile"/>
<rect x="130" y="470" width="40" height="40" class="tile"/>
<rect x="170" y="470" width="40" height="40" class="tile"/>
<rect x="210" y="470" width="40" height="40" class="tile"/>
<rect x="250" y="470" width="40" height="40" class="tile"/>
<rect x="290" y="470" width="40" height="40" class="tile"/>
<rect x="330" y="470" width="40" height="40" class="tile"/>
<rect x="370" y="470" width="40" height="40" class="tile"/>
<rect x="410" y="470" width="40" height="40" class="tile"/>
<rect x="450" y="470" width="40" height="40" class="tile"/>
<rect x="490" y="470" width="40" height="40" class="tile"/>
<rect x="530" y="470" width="40" height="40" class="tile"/>
<rect x="570" y="470" width="40" height="40" class="tile"/>
<rect x="610" y="470" width="40" height="40" class="tile"/>
<rect x="650" y="470" width="40" height="40" class="tile"/>
<rect x="690" y="470" width="40" height="40" class="tile"/>
<rect x="730" y="470" width="40" height="40" class="tile"/>
<rect x="770" y="470" width="40" height="40" class="tile"/>
<rect x="810" y="470" width="40" height="40" class="tile"/>
<rect x="50" y="510" width="40" height="40" class="tile"/>
<rect x="90" y="510" width="40" height="40" class="tile"/>
<rect x="130" y="510" width="40" height="40" class="tile"/>
<rect x="170" y="510" width="40" height="40" class="tile"/>
<rect x="210" y="510" width="40" height="40" class="tile"/>
<rect x="250" y="510" width="40" height="40" class="tile"/>
<rect x="290" y="510" width="40" height="40" class="tile"/>
<rect x="330" y="510" width="40" height="40" class="tile"/>
<rect x="370" y="510" width="40" height="40" class="tile"/>
<rect x="410" y="510" width="40" height="40" class="tile"/>
<rect x="450" y="510" width="40" height="40" class="tile"/>
<rect x="490" y="510" width="40" height="40" class="tile"/>
<rect x="530" y="510" width="40" height="40" class="tile"/>
<rect x="570" y="510" width="40" height="40" class="tile"/>
<rect x="610" y="510" width="40" height="40" class="tile"/>
<rect x="650" y="510" width="40" height="40" class="tile"/>
<rect x="690" y="510" width="40" height="40" class="tile"/>
<rect x="730" y="510" width="40" height="40" class="tile"/>
<rect x="770" y="510" width="40" height="40" class="tile"/>
<rect x="810" y="510" width="40" height="40" class="tile"/>
<rect x="50" y="550" width="40" height="40" class="tile"/>
<rect x="90" y="550" width="40" height="40" class="tile"/>
<rect x="130" y="550" width="40" height="40" class="tile"/>
<rect x="170" y="550" width="40" height="40" class="tile"/>
<rect x="210" y="550" width="40" height="40" class="tile"/>
<rect x="250" y="550" width="40" height="40" class="tile"/>
<rect x="290" y="550" width="40" height="40" class="tile"/>
<rect x="330" y="550" width="40" height="40" class="tile"/>
<rect x="370" y="550" width="40" height="40" class="tile"/>
<rect x="410" y="550" width="40" height="40" class="tile"/>
<rect x="450" y="550" width="40" height="40" class="tile"/>
<rect x="490" y="550" width="40" height="40" class="tile"/>
<rect x="530" y="550" width="40" height="40" class="tile"/>
<rect x="570" y="550" width="40" height="40" class="tile"/>
<rect x="610" y="550" width="40" height="40" class="tile"/>
<rect x="650" y="550" width="40" height="40" class="tile"/>
<rect x="690" y="550" width="40" height="40" class="tile"/>
<rect x="730" y="550" width="40" height="40" class="tile"/>
<rect x="770" y="550" width="40" height="40" class="tile"/>
<rect x="810" y="550" width="40" height="40" class="tile"/>
<rect x="50" y="590" width="40" height="40" class="tile"/>
<rect x="90" y="590" width="40" height="40" class="tile"/>
<rect x="130" y="590" width="40" height="40" class="tile"/>
<rect x="170" y="590" width="40" height="40" class="tile"/>
<rect x="210" y="590" width="40" height="40" class="tile"/>
<rect x="250" y="590" width="40" height="40" class="tile"/>
<rect x="290" y="590" width="40" height="40" class="tile"/>
<rect x="330" y="590" width="40" height="40" class="tile"/>
<rect x="370" y="590" width="40" height="40" class="tile"/>
<rect x="410" y="590" width="40" height="40" class="tile"/>
<rect x="450" y="590" width="40" height="40" class="tile"/>
<rect x="490" y="590" width="40" height="40" class="tile"/>
<rect x="530" y="590" width="40" height="40" class="tile"/>
<rect x="570" y="590" width="40" height="40" class="tile"/>
<rect x="610" y="590" width="40" height="40" class="tile"/>
<rect x="650" y="590" width="40" height="40" class="tile"/>
<rect x="690" y="590" width="40" height="40" class="tile"/>
<rect x="730" y="590" width="40" height="40" class="tile"/>
<rect x="770" y="590" width="40" height="40" class="tile"/>
<rect x="810" y="590" width="40" height="40" class="tile"/>
<rect x="50" y="630" width="40" height="40" class="tile"/>
<rect x="90" y="630" width="40" height="40" class="tile"/>
<rect x="130" y="630" width="40" height="40" class="tile"/>
<rect x="170" y="630" width="40" height="40" class="tile"/>
<rect x="210" y="630" width="40" height="40" class="tile"/>
<rect x="250" y="630" width="40" height="40" class="tile"/>
<rect x="290" y="630" width="40" height="40" class="tile"/>
<rect x="330" y="630" width="40" height="40" class="tile"/>
<rect x="370" y="630" width="40" height="40" class="tile"/>
<rect x="410" y="630" width="40" height="40" class="tile"/>
<rect x="450" y="630" width="40" height="40" class="tile"/>
<rect x="490" y="630" width="40" height="40" class="tile"/>
<rect x="530" y="630" width="40" height="40" class="tile"/>
<rect x="570" y="630" width="40" height="40" class="tile"/>
<rect x="610" y="630" width="40" height="40" class="tile"/>
<rect x="650" y="630" width="40" height="40" class="tile"/>
<rect x="690" y="630" width="40" height="40" class="tile"/>
<rect x="730" y="630" width="40" height="40" class="tile"/>
<rect x="770" y="630" width="40" height="40" class="tile"/>
<rect x="810" y="630" width="40" height="40" class="tile"/>
<circle cx="150" cy="290" r="12" class="unit-start"/>
<text x="150" y="290" class="unit-label">1</text>
<circle cx="150" cy="330" r="12" class="unit-start"/>
<text x="150" y="330" class="unit-label">2</text>
<circle cx="150" cy="370" r="12" class="unit-start"/>
<text x="150" y="370" class="unit-label">3</text>
<circle cx="150" cy="410" r="12" class="unit-start"/>
<text x="150" y="410" class="unit-label">4</text>
<circle cx="150" cy="450" r="12" class="unit-start"/>
<text x="150" y="450" class="unit-label">5</text>
<circle cx="470" cy="370" r="12" class="unit-end"/>
<text x="470" y="370" class="unit-label">1&apos;</text>
<circle cx="470" cy="370" r="12" class="unit-end"/>
<text x="470" y="370" class="unit-label">2&apos;</text>
<circle cx="470" cy="370" r="12" class="unit-end"/>
<text x="470" y="370" class="unit-label">3&apos;</text>
<circle cx="470" cy="370" r="12" class="unit-end"/>
<text x="470" y="370" class="unit-label">4&apos;</text>
<circle cx="470" cy="370" r="12" class="unit-end"/>
<text x="470" y="370" class="unit-label">5&apos;</text>
<rect x="0" y="700" width="900" height="60" fill="#f0f0f0" stroke="#ccc"/>
<circle cx="20" cy="730" r="8" class="unit-start"/><text x="35" y="734" class="legend-text">Initial Position</text><circle cx="170" cy="730" r="8" class="unit-end"/><text x="185" y="734" class="legend-text">Expected Final</text><rect x="312" y="722" width="16" height="16" class="rock"/><text x="335" y="734" class="legend-text">Obstacle</text><line x1="430" y1="730" x2="450" y2="730" class="path"/><text x="460" y="734" class="legend-text">Expected Path</text><text x="20" y="755" class="legend-text" style="font-style: italic;">Verifies formation adapts when target is blocked by obstacles</text></svg>